<?xml version="1.0" standalone="no"?>
<!DOCTYPE svg PUBLIC "-//W3C//DTD SVG 20010904//EN"
 "http://www.w3.org/TR/2001/REC-SVG-20010904/DTD/svg10.dtd">
<svg version="1.0" xmlns="http://www.w3.org/2000/svg"
 width="462.000000pt" height="462.000000pt" viewBox="0 0 462.000000 462.000000"
 preserveAspectRatio="xMidYMid meet">
<metadata>
Created by potrace 1.14, written by Peter Selinger 2001-2017
</metadata>
<g transform="translate(0.000000,462.000000) scale(0.100000,-0.100000)"
fill="#000000" stroke="none">
<path d="M1735 3343 c-106 -6 -211 -26 -299 -54 -207 -68 -494 -249 -638 -402
-69 -74 -96 -117 -121 -197 -8 -25 -27 -73 -41 -107 -14 -34 -33 -97 -40 -140
-59 -320 -1 -633 160 -874 30 -44 54 -84 54 -89 0 -5 -29 -18 -64 -30 -109
-36 -146 -79 -146 -171 0 -46 4 -55 38 -89 40 -40 79 -55 172 -66 77 -9 162 9
251 53 l77 38 60 -28 c66 -31 235 -68 420 -92 168 -22 444 -45 536 -45 76 0
80 -1 119 -36 117 -106 349 -129 515 -52 51 24 83 78 87 147 3 44 3 45 52 57
l48 12 46 -43 c62 -57 105 -69 244 -62 199 10 290 60 316 176 6 27 4 55 -6 95
-8 31 -15 58 -15 60 0 2 49 1 109 -2 125 -5 275 11 370 40 122 38 231 180 267
345 15 70 15 91 5 138 -22 98 -128 218 -241 272 -30 15 -71 39 -90 55 -50 39
-112 58 -190 58 -75 0 -254 -37 -343 -70 -32 -12 -60 -20 -61 -18 -2 1 -16 41
-31 88 -15 47 -52 137 -82 200 -52 109 -61 121 -167 225 -61 61 -132 136 -159
167 -61 73 -217 191 -332 250 -116 59 -324 134 -439 158 -91 19 -304 41 -361
38 -16 -1 -52 -3 -80 -5z m-112 -354 c198 -36 422 -123 610 -237 38 -24 106
-52 177 -72 113 -33 116 -35 181 -99 83 -83 109 -133 159 -315 65 -235 105
-323 176 -385 55 -49 93 -61 214 -70 106 -7 110 -9 199 -59 50 -29 126 -64
168 -80 72 -25 90 -27 218 -26 120 0 149 4 205 24 176 62 286 146 314 238 l14
47 11 -28 c6 -16 11 -38 11 -50 -1 -43 -30 -160 -51 -204 -32 -67 -121 -157
-178 -182 -147 -63 -496 -66 -572 -4 -27 21 -80 44 -165 72 -73 23 -87 25 -92
13 -8 -22 21 -39 113 -67 87 -26 161 -79 190 -136 19 -35 19 -129 1 -154 -12
-17 -14 -15 -20 20 -14 72 -55 133 -109 161 -56 30 -65 -11 -10 -47 43 -28 74
-83 80 -144 5 -40 3 -44 -23 -58 -35 -18 -132 -39 -144 -32 -5 3 -7 12 -4 19
10 26 -16 130 -41 166 -26 37 -72 70 -99 70 -23 0 -20 -37 3 -45 58 -18 102
-104 93 -182 -4 -32 -6 -33 -51 -33 -75 0 -114 16 -166 69 l-48 49 -40 -14
c-60 -21 -78 -17 -116 25 -40 43 -70 60 -151 86 -30 10 -62 24 -71 31 -20 18
-49 18 -49 0 0 -22 45 -53 103 -72 88 -28 137 -61 158 -107 24 -54 24 -70 -3
-123 -28 -56 -48 -58 -48 -4 0 69 -40 135 -93 153 -36 13 -31 -23 9 -57 34
-29 38 -38 42 -92 5 -76 -5 -85 -99 -92 l-71 -5 8 24 c11 31 7 125 -6 149 -15
28 -40 50 -56 50 -20 0 -17 -28 6 -57 23 -30 28 -119 7 -147 -11 -15 -19 -16
-61 -6 -66 15 -138 53 -170 91 -24 29 -27 39 -25 98 2 55 0 67 -14 69 -22 4
-28 -13 -30 -79 l-2 -54 -140 3 c-256 5 -704 65 -828 112 -29 11 -72 33 -97
50 -58 39 -74 39 -67 1 6 -27 3 -30 -52 -55 -112 -50 -239 -56 -327 -15 -47
22 -68 55 -67 105 2 51 40 87 129 119 l75 27 55 -52 c51 -48 73 -58 81 -34 2
6 -26 41 -63 79 -77 82 -162 205 -204 298 -110 243 -129 556 -49 807 48 150
81 144 49 -10 -32 -159 -41 -278 -29 -415 19 -209 61 -332 161 -467 76 -102
149 -165 243 -208 131 -61 205 -75 395 -74 152 0 175 3 285 32 155 41 210 69
294 150 53 52 79 88 115 160 100 200 140 388 134 640 l-3 142 45 15 c63 21
120 62 120 85 0 23 -35 28 -43 7 -9 -24 -98 -59 -161 -64 -80 -7 -141 11 -321
92 -355 161 -429 183 -655 192 -180 7 -228 -4 -396 -88 -109 -55 -123 -60
-145 -49 -13 7 -25 14 -27 15 -2 2 4 19 12 39 23 54 105 144 156 170 59 30
190 73 276 91 101 20 328 17 457 -6z m-185 -234 c161 -28 220 -49 474 -168
130 -61 228 -96 293 -103 49 -6 53 -9 59 -37 18 -88 -6 -357 -44 -509 -12 -45
-44 -129 -70 -186 -40 -85 -61 -116 -115 -168 -78 -76 -133 -106 -259 -138
-136 -36 -256 -50 -367 -42 -269 17 -443 116 -564 320 -71 121 -94 193 -113
363 -13 118 -14 162 -5 255 13 133 50 288 68 288 12 0 141 65 161 81 16 13 90
39 159 55 68 16 192 11 323 -11z m1559 -7 c92 -96 84 -245 -10 -183 -30 19
-73 97 -82 148 -13 71 39 90 92 35z m163 -330 c40 -65 46 -130 13 -143 -24 -8
-50 21 -73 83 -24 64 -19 92 16 92 17 0 31 -10 44 -32z m109 -276 c22 -85 22
-99 6 -116 -21 -21 -33 -13 -56 38 -21 46 -25 106 -7 124 18 18 46 -4 57 -46z"/>
<path d="M1203 2935 c-5 -16 22 -55 39 -55 18 0 20 31 3 50 -22 24 -34 25 -42
5z"/>
<path d="M1464 2920 c-28 -11 -39 -29 -26 -42 15 -15 74 10 70 30 -4 19 -17
23 -44 12z"/>
<path d="M3038 1491 c-54 -34 -95 -86 -104 -129 -9 -47 20 -42 45 7 23 44 64
81 110 100 19 8 31 21 31 32 0 27 -29 24 -82 -10z"/>
<path d="M2365 1361 c-44 -20 -105 -68 -105 -82 0 -21 31 -19 62 4 18 14 52
34 76 46 71 36 40 66 -33 32z"/>
</g>
</svg>
